<svg width="194" height="42" viewBox="0 0 194 42" fill="none" xmlns="http://www.w3.org/2000/svg">
<g clip-path="url(#clip0_3601_182)">
<path d="M55.4954 28.8933C53.9727 28.8933 52.6484 28.6833 51.5225 28.2633C50.3966 27.8433 49.528 27.2509 48.9168 26.4862C48.3056 25.7215 48 24.8438 48 23.8529V23.6914C48 23.5191 48.0536 23.379 48.1608 23.2713C48.2681 23.1636 48.4075 23.1098 48.579 23.1098H52.5358C52.9219 23.1098 53.1149 23.1744 53.1149 23.3037V23.4975C53.1149 23.9068 53.3347 24.246 53.7743 24.5153C54.214 24.7845 54.7769 24.9192 55.4632 24.9192C56.0637 24.9192 56.5462 24.8169 56.9108 24.6122C57.2754 24.4076 57.4577 24.133 57.4577 23.7883C57.4577 23.4437 57.2647 23.1906 56.8787 23.029C56.4926 22.8675 55.8814 22.7113 55.045 22.5605C53.6939 22.302 52.6002 21.9897 51.7638 21.6235C50.6915 21.1712 49.8283 20.6004 49.1742 19.9111C48.5201 19.2218 48.193 18.2956 48.193 17.1324C48.193 15.4522 48.8417 14.1221 50.1392 13.1421C51.4367 12.162 53.147 11.6719 55.2702 11.6719C56.7071 11.6719 57.967 11.9035 59.0501 12.3666C60.1331 12.8297 60.9748 13.4813 61.5753 14.3214C62.1758 15.1615 62.4761 16.1308 62.4761 17.2293C62.4761 17.337 62.4225 17.4286 62.3152 17.504C62.208 17.5793 62.0686 17.617 61.897 17.617H58.0689C57.6829 17.617 57.4899 17.5524 57.4899 17.4232V17.2293C57.4899 16.82 57.2969 16.4862 56.9108 16.2277C56.5248 15.9692 55.9994 15.84 55.3345 15.84C54.734 15.84 54.2462 15.9423 53.8708 16.1469C53.4955 16.3515 53.3079 16.637 53.3079 17.0031C53.3079 17.3693 53.5116 17.6332 53.9191 17.7947C54.3266 17.9563 55.0128 18.134 55.9779 18.3279C57.2861 18.5863 58.1654 18.791 58.6158 18.9418C59.924 19.3726 60.948 19.9541 61.6879 20.6865C62.4278 21.4189 62.7978 22.399 62.7978 23.6268C62.7978 25.3069 62.1383 26.6047 60.8194 27.5202C59.5004 28.4356 57.7258 28.8933 55.4954 28.8933ZM71.4968 11.6719C72.9123 11.6719 74.199 11.9143 75.3571 12.3989C76.5152 12.8836 77.4267 13.5513 78.0915 14.4022C78.7563 15.253 79.0887 16.1954 79.0887 17.2293V28.0533C79.0887 28.2256 79.0351 28.3656 78.9279 28.4733C78.8207 28.581 78.6813 28.6349 78.5097 28.6349H74.3277C74.1562 28.6349 74.0168 28.581 73.9095 28.4733C73.8023 28.3656 73.7487 28.2256 73.7487 28.0533V27.4071C73.7487 27.2994 73.7219 27.2347 73.6683 27.2132C73.6146 27.1917 73.5557 27.224 73.4913 27.3101C72.6335 28.3656 71.2502 28.8933 69.3415 28.8933C67.6473 28.8933 66.2962 28.4895 65.2882 27.6817C64.2803 26.8739 63.7763 25.6839 63.7763 24.1114C63.7763 22.4528 64.35 21.1712 65.4973 20.2665C66.6447 19.3618 68.3014 18.9095 70.4674 18.9095H73.5235C73.6736 18.9095 73.7487 18.8341 73.7487 18.6833V18.134C73.7487 17.5524 73.561 17.0947 73.1857 16.7608C72.8104 16.4269 72.2796 16.26 71.5934 16.26C71.1001 16.26 70.6765 16.3408 70.3227 16.5023C69.9688 16.6639 69.7168 16.8847 69.5667 17.1647C69.4595 17.3155 69.3576 17.4286 69.2611 17.504C69.1646 17.5793 69.0413 17.6063 68.8912 17.5847L64.5805 17.0354C64.1945 16.9924 64.0229 16.8416 64.0658 16.5831C64.173 15.6569 64.5591 14.8222 65.2239 14.0791C65.8887 13.3359 66.7626 12.7489 67.8457 12.3181C68.9287 11.8873 70.1457 11.6719 71.4968 11.6719ZM70.95 25.0484C71.7649 25.0484 72.4351 24.8384 72.9605 24.4184C73.486 23.9983 73.7487 23.4437 73.7487 22.7544V22.0436C73.7487 21.8928 73.6736 21.8174 73.5235 21.8174H71.6577C70.8427 21.8174 70.2155 21.9574 69.7758 22.2374C69.3362 22.5174 69.1163 22.9375 69.1163 23.4975C69.1163 23.9714 69.2772 24.3484 69.5989 24.6284C69.9206 24.9084 70.3709 25.0484 70.95 25.0484ZM90.372 11.8981C90.5436 11.8981 90.683 11.952 90.7902 12.0597C90.8975 12.1674 90.9511 12.3074 90.9511 12.4797V15.7107C90.9511 15.883 90.8975 16.0231 90.7902 16.1308C90.683 16.2385 90.5436 16.2923 90.372 16.2923H87.6055C87.4554 16.2923 87.3803 16.3677 87.3803 16.5185V28.0533C87.3803 28.2256 87.3267 28.3656 87.2195 28.4733C87.1122 28.581 86.9728 28.6349 86.8013 28.6349H82.6193C82.4477 28.6349 82.3083 28.581 82.2011 28.4733C82.0939 28.3656 82.0403 28.2256 82.0403 28.0533V16.5185C82.0403 16.3677 81.9652 16.2923 81.8151 16.2923H80.271C80.0994 16.2923 79.96 16.2385 79.8528 16.1308C79.7455 16.0231 79.6919 15.883 79.6919 15.7107V12.4797C79.6919 12.3074 79.7455 12.1674 79.8528 12.0597C79.96 11.952 80.0994 11.8981 80.271 11.8981H81.8151C81.9652 11.8981 82.0403 11.8227 82.0403 11.6719V10.8642C82.0403 9.5933 82.2654 8.59707 82.7158 7.87547C83.1662 7.15387 83.8846 6.64768 84.8711 6.35688C85.8576 6.06609 87.198 5.953 88.8923 6.01762H90.0182C90.1897 6.01762 90.3291 6.07147 90.4364 6.17918C90.5436 6.28688 90.5972 6.42689 90.5972 6.59921V9.15173C90.5972 9.32405 90.5436 9.46406 90.4364 9.57176C90.3291 9.67946 90.1897 9.73331 90.0182 9.73331H88.9566C88.3776 9.77639 87.9701 9.9164 87.7342 10.1533C87.4983 10.3903 87.3803 10.7888 87.3803 11.3488V11.6719C87.3803 11.8227 87.4554 11.8981 87.6055 11.8981H90.372ZM99.6608 24.3376C100.326 24.3376 100.942 24.2353 101.511 24.0306C102.079 23.826 102.556 23.5514 102.942 23.2067C103.071 23.0559 103.21 22.9806 103.36 22.9806C103.489 22.9806 103.618 23.0559 103.746 23.2067L105.741 25.5977C105.869 25.7485 105.934 25.8885 105.934 26.0177C105.934 26.1685 105.869 26.3085 105.741 26.4378C105.012 27.2132 104.089 27.8163 102.974 28.2471C101.859 28.6779 100.669 28.8933 99.4035 28.8933C97.9452 28.8933 96.653 28.6295 95.5271 28.1017C94.4012 27.574 93.4737 26.8363 92.7445 25.8885C91.565 24.3807 90.9752 22.4636 90.9752 20.1372C90.9752 19.1033 91.0932 18.134 91.3291 17.2293C91.8009 15.5492 92.723 14.1975 94.0956 13.1744C95.4681 12.1512 97.0766 11.6396 98.921 11.6396C101.066 11.6396 102.797 12.3074 104.116 13.6429C105.435 14.9784 106.298 16.8416 106.706 19.2326C106.792 19.8357 106.856 20.4927 106.899 21.2035C106.899 21.5912 106.706 21.7851 106.32 21.7851H96.6048C96.5404 21.7851 96.4815 21.8066 96.4278 21.8497C96.3742 21.8928 96.3582 21.9574 96.3796 22.0436L96.5726 22.6898C96.7871 23.2067 97.1624 23.6106 97.6985 23.9014C98.2347 24.1922 98.8888 24.3376 99.6608 24.3376ZM98.8244 16.26C97.7307 16.26 96.9908 16.7877 96.6048 17.8432C96.519 18.0586 96.4654 18.2202 96.4439 18.3279V18.3925C96.4439 18.5217 96.519 18.5863 96.6691 18.5863H101.076C101.162 18.5863 101.221 18.5594 101.253 18.5056C101.285 18.4517 101.291 18.3925 101.269 18.3279L101.141 17.9078C100.969 17.3909 100.69 16.987 100.304 16.6962C99.9182 16.4054 99.4249 16.26 98.8244 16.26ZM118.15 12.512C118.15 12.3397 118.204 12.1997 118.311 12.092C118.418 11.9843 118.557 11.9304 118.729 11.9304H122.911C123.083 11.9304 123.222 11.9843 123.329 12.092C123.436 12.1997 123.49 12.3397 123.49 12.512V26.7609C123.49 29.7119 122.638 31.8228 120.933 33.0937C119.228 34.3646 117.088 35 114.515 35C113.7 35 112.746 34.9246 111.652 34.7738C111.287 34.7092 111.116 34.4938 111.137 34.1276L111.298 30.5412C111.319 30.1319 111.545 29.9596 111.974 30.0242C112.831 30.1965 113.582 30.2827 114.225 30.2827C115.448 30.2827 116.408 30.0027 117.104 29.4426C117.801 28.8826 118.15 27.9994 118.15 26.7932L117.796 27.1163C117.046 27.8271 115.973 28.1825 114.579 28.1825C113.164 28.1825 111.866 27.8702 110.687 27.2455C109.507 26.6208 108.66 25.5223 108.145 23.9499C107.802 22.9159 107.631 21.6451 107.631 20.1372C107.631 18.4786 107.834 17.1216 108.242 16.0661C108.735 14.7306 109.523 13.6644 110.606 12.8674C111.689 12.0704 112.949 11.6719 114.386 11.6719C115.887 11.6719 117.056 12.1135 117.893 12.9967C117.957 13.0828 118.016 13.1151 118.07 13.0936C118.123 13.072 118.15 13.0074 118.15 12.8997V12.512ZM117.86 22.5282C118.053 22.0328 118.15 21.225 118.15 20.1049C118.15 19.5233 118.129 19.0656 118.086 18.7317C118.043 18.3979 117.957 18.0802 117.828 17.7786C117.657 17.3047 117.383 16.9331 117.008 16.6639C116.633 16.3946 116.177 16.26 115.641 16.26C114.633 16.26 113.914 16.7662 113.485 17.7786C113.164 18.3817 113.003 19.1787 113.003 20.1696C113.003 21.225 113.142 22.0005 113.421 22.4959C113.614 22.9482 113.904 23.3144 114.29 23.5944C114.676 23.8745 115.137 24.0145 115.673 24.0145C116.767 24.0145 117.496 23.5191 117.86 22.5282ZM134.597 12.5286C134.597 12.3563 134.651 12.2163 134.758 12.1086C134.865 12.0009 135.005 11.947 135.176 11.947H139.358C139.53 11.947 139.669 12.0009 139.776 12.1086C139.884 12.2163 139.937 12.3563 139.937 12.5286V28.0699C139.937 28.2422 139.884 28.3822 139.776 28.4899C139.669 28.5976 139.53 28.6515 139.358 28.6515H135.176C135.005 28.6515 134.865 28.5976 134.758 28.4899C134.651 28.3822 134.597 28.2422 134.597 28.0699V27.2621C134.597 27.1544 134.57 27.0898 134.517 27.0682C134.463 27.0467 134.404 27.079 134.34 27.1652C133.439 28.3284 132.11 28.9099 130.351 28.9099C128.721 28.9099 127.402 28.393 126.394 27.359C125.386 26.3251 124.882 24.8819 124.882 23.0295V12.5286C124.882 12.3563 124.936 12.2163 125.043 12.1086C125.15 12.0009 125.29 11.947 125.461 11.947H129.643C129.815 11.947 129.954 12.0009 130.061 12.1086C130.169 12.2163 130.222 12.3563 130.222 12.5286V21.8017C130.222 22.5556 130.415 23.1587 130.801 23.611C131.187 24.0634 131.713 24.2896 132.378 24.2896C132.978 24.2896 133.477 24.1065 133.873 23.7403C134.27 23.3741 134.511 22.8894 134.597 22.2863V12.5286ZM148.791 11.6719C150.206 11.6719 151.493 11.9143 152.651 12.3989C153.809 12.8836 154.721 13.5513 155.386 14.4022C156.05 15.253 156.383 16.1954 156.383 17.2293V28.0533C156.383 28.2256 156.329 28.3656 156.222 28.4733C156.115 28.581 155.975 28.6349 155.804 28.6349H151.622C151.45 28.6349 151.311 28.581 151.204 28.4733C151.096 28.3656 151.043 28.2256 151.043 28.0533V27.4071C151.043 27.2994 151.016 27.2347 150.962 27.2132C150.909 27.1917 150.85 27.224 150.785 27.3101C149.928 28.3656 148.544 28.8933 146.636 28.8933C144.941 28.8933 143.59 28.4895 142.582 27.6817C141.574 26.8739 141.07 25.6839 141.07 24.1114C141.07 22.4528 141.644 21.1712 142.791 20.2665C143.939 19.3618 145.596 18.9095 147.762 18.9095H150.818C150.968 18.9095 151.043 18.8341 151.043 18.6833V18.134C151.043 17.5524 150.855 17.0947 150.48 16.7608C150.105 16.4269 149.574 16.26 148.887 16.26C148.394 16.26 147.971 16.3408 147.617 16.5023C147.263 16.6639 147.011 16.8847 146.861 17.1647C146.754 17.3155 146.652 17.4286 146.555 17.504C146.459 17.5793 146.335 17.6063 146.185 17.5847L141.875 17.0354C141.489 16.9924 141.317 16.8416 141.36 16.5831C141.467 15.6569 141.853 14.8222 142.518 14.0791C143.183 13.3359 144.057 12.7489 145.14 12.3181C146.223 11.8873 147.44 11.6719 148.791 11.6719ZM148.244 25.0484C149.059 25.0484 149.729 24.8384 150.255 24.4184C150.78 23.9983 151.043 23.4437 151.043 22.7544V22.0436C151.043 21.8928 150.968 21.8174 150.818 21.8174H148.952C148.137 21.8174 147.51 21.9574 147.07 22.2374C146.63 22.5174 146.41 22.9375 146.41 23.4975C146.41 23.9714 146.571 24.3484 146.893 24.6284C147.215 24.9084 147.665 25.0484 148.244 25.0484ZM166.197 11.7042C166.883 11.7042 167.441 11.8227 167.87 12.0597C168.149 12.2104 168.256 12.4474 168.192 12.7705L167.484 16.9062C167.462 17.1862 167.323 17.3262 167.066 17.3262C166.958 17.3262 166.873 17.3155 166.808 17.2939C166.551 17.2293 166.229 17.197 165.843 17.197C165.5 17.197 165.243 17.2185 165.071 17.2616C164.406 17.3478 163.843 17.6063 163.382 18.0371C162.921 18.4679 162.691 19.0387 162.691 19.7495V28.0533C162.691 28.2256 162.637 28.3656 162.53 28.4733C162.423 28.581 162.283 28.6349 162.112 28.6349H157.93C157.758 28.6349 157.619 28.581 157.511 28.4733C157.404 28.3656 157.351 28.2256 157.351 28.0533V12.512C157.351 12.3397 157.404 12.1997 157.511 12.092C157.619 11.9843 157.758 11.9304 157.93 11.9304H162.112C162.283 11.9304 162.423 11.9843 162.53 12.092C162.637 12.1997 162.691 12.3397 162.691 12.512V13.2228C162.691 13.3305 162.717 13.3952 162.771 13.4167C162.825 13.4382 162.873 13.4059 162.916 13.3198C163.774 12.2427 164.867 11.7042 166.197 11.7042ZM178.66 6.59921C178.66 6.42689 178.714 6.28688 178.821 6.17918C178.928 6.07147 179.067 6.01762 179.239 6.01762H183.421C183.593 6.01762 183.732 6.07147 183.839 6.17918C183.946 6.28688 184 6.42689 184 6.59921V28.0533C184 28.2256 183.946 28.3656 183.839 28.4733C183.732 28.581 183.593 28.6349 183.421 28.6349H179.239C179.067 28.6349 178.928 28.581 178.821 28.4733C178.714 28.3656 178.66 28.2256 178.66 28.0533V27.2778C178.66 27.1701 178.633 27.1055 178.58 27.084C178.526 27.0624 178.467 27.0947 178.403 27.1809C177.588 28.3225 176.365 28.8933 174.735 28.8933C173.341 28.8933 172.055 28.4302 170.875 27.504C169.695 26.5778 168.891 25.3823 168.462 23.9176C168.119 22.8621 167.948 21.6235 167.948 20.2019C167.948 18.6725 168.173 17.3155 168.623 16.1308C169.116 14.7953 169.915 13.7129 171.02 12.8836C172.124 12.0543 173.363 11.6396 174.735 11.6396C176.365 11.6396 177.588 12.135 178.403 13.1259C178.467 13.2121 178.526 13.2444 178.58 13.2228C178.633 13.2013 178.66 13.1367 178.66 13.029V6.59921ZM178.081 22.9482C178.445 22.259 178.628 21.3758 178.628 20.2988C178.628 19.1141 178.435 18.1663 178.049 17.4555C177.598 16.7231 176.976 16.3569 176.183 16.3569C175.347 16.3569 174.703 16.7339 174.253 17.4878C173.867 18.1986 173.674 19.1356 173.674 20.2988C173.674 21.3974 173.856 22.2913 174.221 22.9806C174.671 23.7775 175.325 24.176 176.183 24.176C176.998 24.176 177.631 23.7668 178.081 22.9482Z" fill="black"/>
<path d="M190.491 7C191.14 7 191.733 7.15243 192.272 7.45729C192.81 7.76215 193.233 8.17546 193.54 8.69724C193.847 9.21901 194 9.80234 194 10.4472C194 11.1156 193.847 11.7194 193.54 12.2588C193.233 12.7982 192.81 13.2232 192.272 13.5339C191.733 13.8446 191.14 14 190.491 14C189.843 14 189.252 13.8446 188.72 13.5339C188.187 13.2232 187.767 12.7982 187.46 12.2588C187.153 11.7194 187 11.1156 187 10.4472C187 9.80234 187.153 9.21901 187.46 8.69724C187.767 8.17546 188.187 7.76215 188.72 7.45729C189.252 7.15243 189.843 7 190.491 7ZM190.491 13.1558C190.989 13.1558 191.441 13.0385 191.846 12.804C192.251 12.5695 192.57 12.2441 192.801 11.8279C193.033 11.4116 193.149 10.9514 193.149 10.4472C193.149 9.9665 193.033 9.52387 192.801 9.11935C192.57 8.71482 192.251 8.39824 191.846 8.1696C191.441 7.94095 190.989 7.82663 190.491 7.82663C190.005 7.82663 189.562 7.94095 189.163 8.1696C188.763 8.39824 188.447 8.71482 188.216 9.11935C187.984 9.52387 187.868 9.9665 187.868 10.4472C187.868 10.9514 187.984 11.4116 188.216 11.8279C188.447 12.2441 188.763 12.5695 189.163 12.804C189.562 13.0385 190.005 13.1558 190.491 13.1558ZM191.69 9.86683C191.69 10.242 191.551 10.5117 191.273 10.6759C191.227 10.7111 191.209 10.758 191.221 10.8166L191.568 11.7663C191.58 11.8015 191.586 11.8425 191.586 11.8894C191.586 12.0184 191.505 12.0829 191.342 12.0829H191.169C191.018 12.0829 190.914 12.0067 190.856 11.8543L190.526 10.9045C190.514 10.8459 190.474 10.8166 190.404 10.8166H190.335C190.266 10.8166 190.231 10.8518 190.231 10.9221V11.8015C190.231 11.9891 190.138 12.0829 189.953 12.0829H189.797C189.611 12.0829 189.519 11.9891 189.519 11.8015V9.14573C189.519 8.95812 189.611 8.86432 189.797 8.86432H190.7C190.989 8.86432 191.227 8.96105 191.412 9.15452C191.597 9.34799 191.69 9.58543 191.69 9.86683ZM190.335 9.4799C190.266 9.4799 190.231 9.51508 190.231 9.58543V10.1658C190.231 10.2362 190.266 10.2714 190.335 10.2714H190.596C190.711 10.2714 190.804 10.2332 190.873 10.157C190.943 10.0808 190.978 9.98995 190.978 9.88442C190.978 9.76717 190.943 9.67044 190.873 9.59422C190.804 9.51801 190.711 9.4799 190.596 9.4799H190.335Z" fill="black"/>
<path fill-rule="evenodd" clip-rule="evenodd" d="M20.3769 1.63857L35.6719 10.3136C36.4256 10.7411 36.8907 11.5359 36.8907 12.3966V29.7106C36.8907 30.5712 36.4256 31.366 35.6719 31.7935L20.3769 40.4686C19.6316 40.8913 18.7161 40.8913 17.9709 40.4686L2.67585 31.7935C1.92208 31.366 1.45703 30.5712 1.45703 29.7106V12.3966C1.45703 11.5359 1.92208 10.7411 2.67585 10.3136L17.9709 1.63857C18.7161 1.21586 19.6316 1.21586 20.3769 1.63857Z" stroke="black" stroke-width="1.8"/>
<path d="M30.3371 13.5927L21.5469 8.68062C20.8335 8.28189 19.9416 8.78028 19.9416 9.57773V17.3779C19.9416 17.3779 19.9332 17.4687 20.0226 17.5571C20.0928 17.6266 20.1983 17.6265 20.1983 17.6265H23.5833C23.5833 17.6265 23.6925 17.6276 23.7691 17.5453C23.8435 17.4652 23.8401 17.378 23.8401 17.378V14.7302C23.8401 14.4735 24.1163 14.3044 24.3558 14.4144L31.0607 17.4924C31.2045 17.5584 31.3703 17.4569 31.3703 17.3029V15.3249C31.3703 14.6103 30.9766 13.95 30.3371 13.5927Z" fill="black"/>
<path d="M30.6807 19.4438H23.8416H23.0981H15.5903H11.2C10.8763 19.4438 10.6138 19.1897 10.6138 18.8763V16.4875C10.6138 16.1634 10.8067 15.8682 11.1093 15.7293L13.9977 14.4033C14.226 14.2985 14.4894 14.4596 14.4894 14.7043V17.378C14.4894 17.5152 14.6043 17.6264 14.7462 17.6264H18.131C18.2729 17.6264 18.3878 17.5152 18.3878 17.378V9.57769C18.3878 8.78023 17.496 8.28185 16.7825 8.68068L7.9923 13.5927C7.35286 13.9501 6.95898 14.6103 6.95898 15.3249V21.9769C6.95898 22.2871 7.21885 22.5386 7.53928 22.5386H13.903C13.9317 22.5386 13.9596 22.5413 13.9872 22.545H15.5903H23.0981H24.2257C24.2477 22.5418 24.2697 22.5385 24.2926 22.5385H27.2661C27.5152 22.5385 27.7172 22.7339 27.7172 22.9751V25.4981C27.7172 25.8203 27.5255 26.1136 27.2247 26.2517L24.3574 27.5679C24.1178 27.678 23.8416 27.5088 23.8416 27.2522V24.5963C23.8416 24.5963 23.8483 24.5055 23.7717 24.4237C23.698 24.345 23.5821 24.3465 23.5821 24.3465H20.1999C20.1999 24.3465 20.0774 24.3417 20.0034 24.419C19.9384 24.487 19.9432 24.5963 19.9432 24.5963V32.4046C19.9432 33.202 20.835 33.7004 21.5484 33.3017L30.3387 28.3896C30.978 28.0323 31.3719 27.372 31.3719 26.6574V20.1128C31.3719 19.7433 31.0625 19.4438 30.6807 19.4438Z" fill="black"/>
<path d="M18.131 24.3479H14.7443C14.7443 24.3479 14.6564 24.3356 14.5625 24.4145C14.4778 24.4855 14.4894 24.5965 14.4894 24.5965V27.2781C14.4894 27.5227 14.226 27.684 13.9977 27.5791L11.1092 26.2532C10.8067 26.1143 10.6138 25.819 10.6138 25.4949V24.5965C10.6138 24.4591 10.4988 24.3479 10.357 24.3479H7.21578C7.074 24.3479 6.95898 24.4591 6.95898 24.5965V26.6575V26.9303H6.97849C7.06471 27.5371 7.43519 28.0784 7.9923 28.3898L16.7825 33.3018C17.496 33.7005 18.3878 33.2022 18.3878 32.4047V24.5965C18.3878 24.5965 18.3977 24.4717 18.3211 24.4037C18.2453 24.3364 18.131 24.3479 18.131 24.3479Z" fill="black"/>
</g>
<defs>
<clipPath id="clip0_3601_182">
<rect width="194" height="42" fill="white"/>
</clipPath>
</defs>
</svg>
