<svg width="24" height="23" viewBox="0 0 24 23" fill="none" xmlns="http://www.w3.org/2000/svg">
<path fill-rule="evenodd" clip-rule="evenodd" d="M1.03914 20.3388C0.648636 20.7293 0.648636 21.3625 1.03914 21.753L1.74623 22.4601C2.1368 22.8506 2.76997 22.8506 3.16048 22.4601L11.9992 13.6214L20.8379 22.4602C21.2285 22.8507 21.8616 22.8507 22.2522 22.4602L22.9592 21.7531C23.3497 21.3626 23.3497 20.7294 22.9592 20.3389L14.1205 11.5001L22.9595 2.66112C23.35 2.2706 23.35 1.63743 22.9595 1.24691L22.2523 0.539804C21.8618 0.149279 21.2287 0.149279 20.8382 0.539804L11.9992 9.37879L3.16023 0.539873C2.76973 0.149347 2.13655 0.149347 1.74605 0.539873L1.03896 1.24698C0.648392 1.6375 0.648392 2.27067 1.03896 2.66119L9.87782 11.5001L1.03914 20.3388Z" fill="black"/>
</svg>
