<svg width="38" height="42" viewBox="0 0 38 42" fill="none" xmlns="http://www.w3.org/2000/svg">
<path fill-rule="evenodd" clip-rule="evenodd" d="M20.3769 1.63857L35.6719 10.3136C36.4256 10.7411 36.8907 11.5359 36.8907 12.3966V29.7106C36.8907 30.5712 36.4256 31.366 35.6719 31.7935L20.3769 40.4686C19.6316 40.8913 18.7161 40.8913 17.9709 40.4686L2.67585 31.7935C1.92208 31.366 1.45703 30.5712 1.45703 29.7106V12.3966C1.45703 11.5359 1.92208 10.7411 2.67585 10.3136L17.9709 1.63857C18.7161 1.21586 19.6316 1.21586 20.3769 1.63857Z" stroke="black" stroke-width="1.8"/>
<path d="M30.3371 13.5927L21.5469 8.68062C20.8335 8.28189 19.9416 8.78028 19.9416 9.57773V17.3779C19.9416 17.3779 19.9332 17.4687 20.0226 17.5571C20.0928 17.6266 20.1983 17.6265 20.1983 17.6265H23.5833C23.5833 17.6265 23.6925 17.6276 23.7691 17.5453C23.8435 17.4652 23.8401 17.378 23.8401 17.378V14.7302C23.8401 14.4735 24.1163 14.3044 24.3558 14.4144L31.0607 17.4924C31.2045 17.5584 31.3703 17.4569 31.3703 17.3029V15.3249C31.3703 14.6103 30.9766 13.95 30.3371 13.5927Z" fill="black"/>
<path d="M30.6807 19.4438H23.8416H23.0981H15.5903H11.2C10.8763 19.4438 10.6138 19.1897 10.6138 18.8763V16.4875C10.6138 16.1634 10.8067 15.8682 11.1093 15.7293L13.9977 14.4033C14.226 14.2985 14.4894 14.4596 14.4894 14.7043V17.378C14.4894 17.5152 14.6043 17.6264 14.7462 17.6264H18.131C18.2729 17.6264 18.3878 17.5152 18.3878 17.378V9.57769C18.3878 8.78023 17.496 8.28185 16.7825 8.68068L7.9923 13.5927C7.35286 13.9501 6.95898 14.6103 6.95898 15.3249V21.9769C6.95898 22.2871 7.21885 22.5386 7.53928 22.5386H13.903C13.9317 22.5386 13.9596 22.5413 13.9872 22.545H15.5903H23.0981H24.2257C24.2477 22.5419 24.2697 22.5385 24.2926 22.5385H27.2661C27.5152 22.5385 27.7172 22.7339 27.7172 22.9751V25.4981C27.7172 25.8203 27.5255 26.1136 27.2247 26.2517L24.3574 27.5679C24.1178 27.678 23.8416 27.5088 23.8416 27.2522V24.5963C23.8416 24.5963 23.8483 24.5055 23.7717 24.4237C23.698 24.345 23.5821 24.3465 23.5821 24.3465H20.1999C20.1999 24.3465 20.0774 24.3417 20.0034 24.419C19.9384 24.487 19.9432 24.5963 19.9432 24.5963V32.4046C19.9432 33.202 20.835 33.7004 21.5484 33.3017L30.3387 28.3896C30.978 28.0323 31.3719 27.372 31.3719 26.6574V20.1128C31.3719 19.7433 31.0625 19.4438 30.6807 19.4438Z" fill="black"/>
<path d="M18.131 24.3479H14.7443C14.7443 24.3479 14.6564 24.3356 14.5625 24.4145C14.4778 24.4855 14.4894 24.5965 14.4894 24.5965V27.2781C14.4894 27.5227 14.226 27.684 13.9977 27.5791L11.1092 26.2532C10.8067 26.1143 10.6138 25.819 10.6138 25.4949V24.5965C10.6138 24.4591 10.4988 24.3479 10.357 24.3479H7.21578C7.074 24.3479 6.95898 24.4591 6.95898 24.5965V26.6575V26.9303H6.97849C7.06471 27.5371 7.43519 28.0784 7.9923 28.3898L16.7825 33.3018C17.496 33.7005 18.3878 33.2022 18.3878 32.4047V24.5965C18.3878 24.5965 18.3977 24.4717 18.3211 24.4037C18.2453 24.3364 18.131 24.3479 18.131 24.3479Z" fill="black"/>
</svg>
