<svg width="182" height="202" viewBox="0 0 182 202" fill="none" xmlns="http://www.w3.org/2000/svg">
<path fill-rule="evenodd" clip-rule="evenodd" d="M96.8838 2.60669L174.397 46.571C178.217 48.7376 180.574 52.7655 180.574 57.1273V144.873C180.574 149.235 178.217 153.262 174.397 155.429L96.8838 199.393C93.1068 201.536 88.4674 201.536 84.6904 199.393L7.17685 155.429C3.35684 153.262 1 149.235 1 144.873V57.1273C1 52.7655 3.35684 48.7376 7.17685 46.571L84.6904 2.60669C88.4674 0.464436 93.1068 0.464436 96.8838 2.60669Z" stroke="#FFBC00" stroke-width="1.8"/>
<path fill-rule="evenodd" clip-rule="evenodd" d="M96.8838 2.60669L174.397 46.571C178.217 48.7376 180.574 52.7655 180.574 57.1273V144.873C180.574 149.235 178.217 153.262 174.397 155.429L96.8838 199.393C93.1068 201.536 88.4674 201.536 84.6904 199.393L7.17685 155.429C3.35684 153.262 1 149.235 1 144.873V57.1273C1 52.7655 3.35684 48.7376 7.17685 46.571L84.6904 2.60669C88.4674 0.464436 93.1068 0.464436 96.8838 2.60669Z" fill="white"/>
<path d="M147.35 63.1882L102.802 38.2942C99.1869 36.2735 94.6671 38.7993 94.6671 42.8407V82.3712C94.6671 82.3712 94.6246 82.8311 95.0776 83.2796C95.4332 83.6318 95.968 83.6308 95.968 83.6308H113.123C113.123 83.6308 113.676 83.6368 114.064 83.2194C114.442 82.8136 114.424 82.3717 114.424 82.3717V68.9527C114.424 67.652 115.824 66.7952 117.038 67.3523L151.018 82.9514C151.746 83.2861 152.587 82.7715 152.587 81.9909V71.967C152.587 68.3454 150.591 64.9989 147.35 63.1882Z" fill="#FFBC00"/>
<path d="M149.102 92.8408H114.442H110.674H72.6255H50.376C48.7355 92.8408 47.4051 91.5531 47.4051 89.9648V77.8585C47.4051 76.2161 48.3824 74.72 49.9163 74.016L64.5545 67.296C65.7115 66.7649 67.046 67.5816 67.046 68.8217V82.3715C67.046 83.0669 67.6284 83.6306 68.3474 83.6306H85.5015C86.2205 83.6306 86.8029 83.0669 86.8029 82.3715V42.8405C86.8029 38.7991 82.2831 36.2733 78.6672 38.2945L34.1196 63.1879C30.8789 64.9992 28.8828 68.3452 28.8828 71.9667V105.679C28.8828 107.25 30.1998 108.525 31.8237 108.525H64.0746C64.22 108.525 64.3614 108.539 64.5011 108.558H72.6255H110.674H116.389C116.5 108.542 116.612 108.525 116.728 108.525H131.797C133.06 108.525 134.083 109.515 134.083 110.737V123.523C134.083 125.156 133.112 126.643 131.588 127.343L117.056 134.013C115.842 134.571 114.442 133.714 114.442 132.413V118.953C114.442 118.953 114.476 118.493 114.088 118.078C113.715 117.68 113.127 117.687 113.127 117.687H95.9864C95.9864 117.687 95.3657 117.663 94.9904 118.055C94.6611 118.4 94.6855 118.953 94.6855 118.953V158.525C94.6855 162.566 99.2053 165.092 102.821 163.071L147.369 138.177C150.609 136.367 152.605 133.02 152.605 129.399V96.2314C152.605 94.359 151.037 92.8408 149.102 92.8408Z" fill="#FFBC00"/>
<path d="M85.5015 117.696H68.3381C68.3381 117.696 67.8924 117.634 67.4167 118.034C66.9875 118.393 67.046 118.956 67.046 118.956V132.546C67.046 133.785 65.7115 134.603 64.5545 134.071L49.9158 127.352C48.3824 126.648 47.4051 125.151 47.4051 123.509V118.956C47.4051 118.26 46.8222 117.696 46.1036 117.696H30.1842C29.4657 117.696 28.8828 118.26 28.8828 118.956V129.401V130.783H28.9817C29.4186 133.859 31.2962 136.602 34.1196 138.18L78.6672 163.074C82.2831 165.094 86.8029 162.569 86.8029 158.527V118.956C86.8029 118.956 86.8531 118.323 86.4649 117.978C86.0808 117.638 85.5015 117.696 85.5015 117.696Z" fill="#FFBC00"/>
</svg>
